<mxfile host="app.diagrams.net" agent="Mozilla/5.0 (Windows NT 10.0; Win64; x64) AppleWebKit/537.36 (KHTML, like Gecko) Chrome/127.0.0.0 Safari/537.36" version="24.7.7">
  <diagram name="PÃ¡gina-1" id="D9BhqYf-w_LQV4EX5_kr">
    <mxGraphModel dx="1050" dy="565" grid="1" gridSize="10" guides="1" tooltips="1" connect="1" arrows="1" fold="1" page="1" pageScale="1" pageWidth="827" pageHeight="1169" math="0" shadow="0">
      <root>
        <mxCell id="0" />
        <mxCell id="1" parent="0" />
        <mxCell id="bHQGTVbVJYEOcfV3wD_5-61" value="" style="shape=ext;double=1;rounded=1;whiteSpace=wrap;html=1;" vertex="1" parent="1">
          <mxGeometry x="414" y="73.97" width="160" height="70" as="geometry" />
        </mxCell>
        <mxCell id="bHQGTVbVJYEOcfV3wD_5-37" value="" style="outlineConnect=0;dashed=0;verticalLabelPosition=bottom;verticalAlign=top;align=center;html=1;shape=mxgraph.aws3.internet_gateway;fillColor=#F58536;gradientColor=none;" vertex="1" parent="1">
          <mxGeometry x="630" y="286" width="69" height="72" as="geometry" />
        </mxCell>
        <mxCell id="bHQGTVbVJYEOcfV3wD_5-41" value="" style="outlineConnect=0;dashed=0;verticalLabelPosition=bottom;verticalAlign=top;align=center;html=1;shape=mxgraph.aws3.iam;fillColor=#759C3E;gradientColor=none;" vertex="1" parent="1">
          <mxGeometry x="544" y="60" width="20" height="30" as="geometry" />
        </mxCell>
        <mxCell id="bHQGTVbVJYEOcfV3wD_5-42" value="" style="outlineConnect=0;dashed=0;verticalLabelPosition=bottom;verticalAlign=top;align=center;html=1;shape=mxgraph.aws3.ec2;fillColor=#F58534;gradientColor=none;" vertex="1" parent="1">
          <mxGeometry x="200" y="320" width="76.5" height="93" as="geometry" />
        </mxCell>
        <mxCell id="bHQGTVbVJYEOcfV3wD_5-43" value="" style="outlineConnect=0;dashed=0;verticalLabelPosition=bottom;verticalAlign=top;align=center;html=1;shape=mxgraph.aws3.ec2;fillColor=#F58534;gradientColor=none;" vertex="1" parent="1">
          <mxGeometry x="62.75" y="320" width="76.5" height="93" as="geometry" />
        </mxCell>
        <mxCell id="bHQGTVbVJYEOcfV3wD_5-44" value="" style="outlineConnect=0;dashed=0;verticalLabelPosition=bottom;verticalAlign=top;align=center;html=1;shape=mxgraph.aws3.ec2;fillColor=#F58534;gradientColor=none;" vertex="1" parent="1">
          <mxGeometry x="337" y="320" width="76.5" height="93" as="geometry" />
        </mxCell>
        <mxCell id="bHQGTVbVJYEOcfV3wD_5-45" value="Title" style="text;strokeColor=none;fillColor=none;html=1;fontSize=24;fontStyle=1;verticalAlign=middle;align=center;" vertex="1" parent="1">
          <mxGeometry x="590" y="190" width="100" height="40" as="geometry" />
        </mxCell>
        <mxCell id="bHQGTVbVJYEOcfV3wD_5-47" value="EC2 Instance" style="text;strokeColor=none;fillColor=none;align=left;verticalAlign=top;spacingLeft=4;spacingRight=4;overflow=hidden;rotatable=0;points=[[0,0.5],[1,0.5]];portConstraint=eastwest;whiteSpace=wrap;html=1;" vertex="1" parent="1">
          <mxGeometry x="55.629999999999995" y="430" width="90.75" height="26" as="geometry" />
        </mxCell>
        <mxCell id="bHQGTVbVJYEOcfV3wD_5-48" value="EC2 Instance" style="text;strokeColor=none;fillColor=none;align=left;verticalAlign=top;spacingLeft=4;spacingRight=4;overflow=hidden;rotatable=0;points=[[0,0.5],[1,0.5]];portConstraint=eastwest;whiteSpace=wrap;html=1;" vertex="1" parent="1">
          <mxGeometry x="185.75" y="430" width="90.75" height="26" as="geometry" />
        </mxCell>
        <mxCell id="bHQGTVbVJYEOcfV3wD_5-49" value="" style="image;html=1;image=img/lib/clip_art/computers/Virtual_Machine_128x128.png" vertex="1" parent="1">
          <mxGeometry x="295" y="190" width="80" height="80" as="geometry" />
        </mxCell>
        <mxCell id="bHQGTVbVJYEOcfV3wD_5-50" value="AWS Machine Images" style="text;strokeColor=none;fillColor=none;align=left;verticalAlign=top;spacingLeft=4;spacingRight=4;overflow=hidden;rotatable=0;points=[[0,0.5],[1,0.5]];portConstraint=eastwest;whiteSpace=wrap;html=1;" vertex="1" parent="1">
          <mxGeometry x="150" y="220" width="90" height="50" as="geometry" />
        </mxCell>
        <mxCell id="bHQGTVbVJYEOcfV3wD_5-51" value="EC2 Instance" style="text;strokeColor=none;fillColor=none;align=left;verticalAlign=top;spacingLeft=4;spacingRight=4;overflow=hidden;rotatable=0;points=[[0,0.5],[1,0.5]];portConstraint=eastwest;whiteSpace=wrap;html=1;" vertex="1" parent="1">
          <mxGeometry x="337" y="430" width="90.75" height="26" as="geometry" />
        </mxCell>
        <mxCell id="bHQGTVbVJYEOcfV3wD_5-52" value="" style="html=1;verticalLabelPosition=bottom;align=center;labelBackgroundColor=#ffffff;verticalAlign=top;strokeWidth=2;strokeColor=#0080F0;shadow=0;dashed=0;shape=mxgraph.ios7.icons.user;" vertex="1" parent="1">
          <mxGeometry x="431.38" y="93.97" width="30" height="30" as="geometry" />
        </mxCell>
        <mxCell id="bHQGTVbVJYEOcfV3wD_5-53" value="" style="html=1;verticalLabelPosition=bottom;align=center;labelBackgroundColor=#ffffff;verticalAlign=top;strokeWidth=2;strokeColor=#0080F0;shadow=0;dashed=0;shape=mxgraph.ios7.icons.user;" vertex="1" parent="1">
          <mxGeometry x="478" y="93.97" width="30" height="30" as="geometry" />
        </mxCell>
        <mxCell id="bHQGTVbVJYEOcfV3wD_5-54" value="" style="points=[[0.35,0,0],[0.98,0.51,0],[1,0.71,0],[0.67,1,0],[0,0.795,0],[0,0.65,0]];verticalLabelPosition=bottom;sketch=0;html=1;verticalAlign=top;aspect=fixed;align=center;pointerEvents=1;shape=mxgraph.cisco19.user;fillColor=#005073;strokeColor=none;" vertex="1" parent="1">
          <mxGeometry x="310" y="90" width="50" height="50" as="geometry" />
        </mxCell>
        <mxCell id="bHQGTVbVJYEOcfV3wD_5-55" value="" style="sketch=0;outlineConnect=0;fontColor=#232F3E;gradientColor=none;fillColor=#232F3D;strokeColor=none;dashed=0;verticalLabelPosition=bottom;verticalAlign=top;align=center;html=1;fontSize=12;fontStyle=0;aspect=fixed;pointerEvents=1;shape=mxgraph.aws4.mobile_client;" vertex="1" parent="1">
          <mxGeometry x="185.75" y="90.00000000000001" width="21" height="39.95" as="geometry" />
        </mxCell>
        <mxCell id="bHQGTVbVJYEOcfV3wD_5-60" value="" style="html=1;verticalLabelPosition=bottom;align=center;labelBackgroundColor=#ffffff;verticalAlign=top;strokeWidth=2;strokeColor=#0080F0;shadow=0;dashed=0;shape=mxgraph.ios7.icons.user;" vertex="1" parent="1">
          <mxGeometry x="525" y="93.97" width="30" height="30" as="geometry" />
        </mxCell>
        <mxCell id="bHQGTVbVJYEOcfV3wD_5-63" value="AWS IAM" style="text;strokeColor=none;fillColor=none;align=left;verticalAlign=top;spacingLeft=4;spacingRight=4;overflow=hidden;rotatable=0;points=[[0,0.5],[1,0.5]];portConstraint=eastwest;whiteSpace=wrap;html=1;" vertex="1" parent="1">
          <mxGeometry x="564" y="47.97" width="64.68" height="26" as="geometry" />
        </mxCell>
      </root>
    </mxGraphModel>
  </diagram>
</mxfile>
